<svg xmlns="http://www.w3.org/2000/svg" width="100" height="100" viewBox="0 0 100 100"><path d="M50 12c-21 0-38 17-38 38s17 38 38 38 38-17 38-38-17-38-38-38zm0 72c-18.8 0-34-15.2-34-34s15.2-34 34-34 34 15.2 34 34-15.2 34-34 34zm19.5-34c0 1.1-.9 2-2 2h-35c-1.1 0-2-.9-2-2s.9-2 2-2h35c1.1 0 2 .9 2 2zm0 12c0 1.1-.9 2-2 2h-35c-1.1 0-2-.9-2-2s.9-2 2-2h35c1.1 0 2 .9 2 2zm0-24c0 1.1-.9 2-2 2h-35c-1.1 0-2-.9-2-2s.9-2 2-2h35c1.1 0 2 .9 2 2z"/><path fill="#00F" d="M384-1210V474h-1784v-1684H384m8-8h-1800V482H392v-1700z"/></svg>